<svg xmlns="http://www.w3.org/2000/svg" xmlns:xlink="http://www.w3.org/1999/xlink">

<symbol id="cv" fill-rule="evenodd" clip-rule="evenodd" stroke-linejoin="round" stroke-miterlimit="1.414" viewBox="0 0 16 16"><path d="M 7.785156 10.261719 C 7.480469 10.742188 7.1875 11.210938 6.53125 11.667969 C 6.179688 11.914062 5.367188 12.394531 4.21875 12.394531 C 2.023438 12.394531 0.25 10.800781 0.25 7.992188 C 0.25 5.542969 1.917969 3.605469 4.265625 3.605469 C 5.214844 3.605469 6.0625 3.933594 6.683594 4.425781 C 7.257812 4.882812 7.527344 5.339844 7.761719 5.753906 L 6.121094 6.574219 C 6.003906 6.304688 5.859375 6.023438 5.496094 5.71875 C 5.097656 5.398438 4.699219 5.304688 4.359375 5.304688 C 3.019531 5.304688 2.316406 6.550781 2.316406 7.933594 C 2.316406 9.753906 3.242188 10.660156 4.359375 10.660156 C 5.4375 10.660156 5.875 9.90625 6.152344 9.425781 Z M 13.542969 3.863281 L 15.75 3.863281 L 12.875 12.148438 L 10.761719 12.148438 L 7.921875 3.863281 L 10.128906 3.863281 L 11.839844 9.753906 Z M 13.542969 3.863281 "/>
</symbol>
<symbol id="inaturalist" fill-rule="evenodd" clip-rule="evenodd" stroke-linejoin="round" stroke-miterlimit="1.414" viewBox="0 0 16 16"><path d="M 6.050781 2 C 6.121094 2.449219 6.371094 3.144531 6.566406 3.570312 C 6.777344 4.03125 7.007812 4.472656 7.40625 4.839844 C 7.40625 4.839844 8.589844 5.617188 8.589844 5.617188 C 9.117188 5.960938 9.621094 6.335938 10.085938 6.742188 C 10.1875 6.828125 10.503906 7.164062 10.636719 7.152344 C 10.789062 7.136719 10.757812 6.898438 10.757812 6.804688 C 10.753906 6.328125 10.449219 5.628906 10.207031 5.203125 C 9.886719 4.640625 9.503906 4.089844 9 3.636719 C 8.632812 3.308594 8.03125 2.929688 7.582031 2.683594 C 7.253906 2.503906 6.398438 2.058594 6.050781 2 Z M 0.257812 3.375 C 0.300781 3.789062 0.605469 4.101562 0.929688 4.386719 C 1.484375 4.871094 2.042969 5.175781 2.6875 5.554688 C 2.945312 5.703125 3.578125 6.066406 3.847656 6.152344 C 3.570312 6.222656 3.445312 6.15625 3.171875 6.152344 C 2.734375 6.148438 2.328125 6.175781 1.902344 6.28125 C 2.03125 6.578125 2.320312 6.816406 2.574219 7.035156 C 3.230469 7.59375 4.585938 8.183594 5.488281 8.34375 C 5.488281 8.34375 4.816406 8.417969 4.816406 8.417969 C 4.816406 8.417969 3.660156 8.605469 3.660156 8.605469 C 3.769531 8.851562 4.113281 9.152344 4.316406 9.355469 C 5.222656 10.273438 6.128906 10.808594 7.546875 10.796875 C 7.546875 10.796875 8.480469 10.730469 8.480469 10.730469 C 8.621094 10.726562 8.890625 10.710938 8.945312 10.863281 C 8.980469 10.96875 8.847656 11.136719 8.78125 11.21875 C 8.605469 11.4375 8.207031 11.855469 7.992188 12.035156 C 7.125 12.773438 5.710938 13.460938 4.480469 13.507812 C 4.601562 13.644531 4.894531 13.6875 5.078125 13.738281 C 5.570312 13.871094 6.324219 13.992188 6.835938 14 C 7.507812 14.007812 8.160156 13.976562 8.816406 13.839844 C 11.105469 13.363281 12.835938 12.074219 13.8125 10.207031 C 14.402344 9.070312 14.363281 7.820312 14.859375 6.902344 C 15.019531 6.609375 15.175781 6.417969 15.464844 6.210938 C 15.550781 6.152344 15.773438 6.039062 15.738281 5.929688 C 15.707031 5.832031 15.492188 5.800781 15.390625 5.78125 C 15.089844 5.71875 14.652344 5.664062 14.34375 5.660156 C 14.34375 5.660156 13.824219 5.660156 13.824219 5.660156 C 12.929688 5.671875 12.089844 6.074219 11.535156 6.675781 C 11.535156 6.675781 10.910156 7.460938 10.910156 7.460938 C 10.832031 7.550781 10.722656 7.675781 10.570312 7.660156 C 10.453125 7.644531 10.320312 7.53125 10.234375 7.460938 C 10.234375 7.460938 9.664062 6.941406 9.664062 6.941406 C 9.046875 6.386719 8.320312 5.898438 7.582031 5.476562 C 5.898438 4.515625 3.949219 3.898438 1.976562 3.589844 C 1.976562 3.589844 0.257812 3.375 0.257812 3.375 Z M 13.5625 6.332031 C 14.050781 6.289062 14.082031 6.808594 13.710938 6.890625 C 13.355469 6.964844 13.085938 6.496094 13.5625 6.332031 Z M 13.5625 6.332031 "/>
</symbol>
<symbol id="github" fill-rule="evenodd" clip-rule="evenodd" stroke-linejoin="round" stroke-miterlimit="1.414" viewBox="0 0 16 16"><path d="M8 0C3.58 0 0 3.582 0 8c0 3.535 2.292 6.533 5.47 7.59.4.075.547-.172.547-.385 0-.19-.007-.693-.01-1.36-2.226.483-2.695-1.073-2.695-1.073-.364-.924-.89-1.17-.89-1.17-.725-.496.056-.486.056-.486.803.056 1.225.824 1.225.824.714 1.223 1.873.87 2.33.665.072-.517.278-.87.507-1.07-1.777-.2-3.644-.888-3.644-3.953 0-.873.31-1.587.823-2.147-.09-.202-.36-1.015.07-2.117 0 0 .67-.215 2.2.82.64-.178 1.32-.266 2-.27.68.004 1.36.092 2 .27 1.52-1.035 2.19-.82 2.19-.82.43 1.102.16 1.915.08 2.117.51.56.82 1.274.82 2.147 0 3.073-1.87 3.75-3.65 3.947.28.24.54.73.54 1.48 0 1.07-.01 1.93-.01 2.19 0 .21.14.46.55.38C13.71 14.53 16 11.53 16 8c0-4.418-3.582-8-8-8"/>
</symbol>
<symbol id="google_scholar" fill-rule="evenodd" clip-rule="evenodd" stroke-linejoin="round" stroke-miterlimit="1.414" viewBox="0 0 16 16"><circle opacity="0.7" cx="8.036" cy="11.08" r="4.3"/><path opacity="0.75" d="M0.585,6.505l7.42-5.885L8.03,6.582 C5.305,6.632,4.139,8.729,3.913,9.13L0.585,6.505z"/><path d="M15.415,6.509l-7.42-5.886L7.97,6.585c2.725,0.05,3.891,2.147,4.117,2.548L15.415,6.509z"/>
</symbol>
<symbol id="mastodon" fill-rule="evenodd" clip-rule="evenodd" stroke-linejoin="round" stroke-miterlimit="1.414" viewBox="0 0 16 16"><path d="M15.195,5.352c0-3.347-2.193-4.328-2.193-4.328c-1.104-0.508-3.004-0.721-4.977-0.737H7.977 c-1.973,0.016-3.87,0.229-4.976,0.737c0,0-2.193,0.981-2.193,4.328c0,0.766-0.015,1.683,0.009,2.654c0.08,3.272,0.6,6.499,3.626,7.3 c1.396,0.369,2.594,0.446,3.559,0.394c1.75-0.097,2.732-0.624,2.732-0.624l-0.058-1.27c0,0-1.25,0.395-2.655,0.346 c-1.391-0.047-2.86-0.149-3.085-1.857c-0.021-0.15-0.031-0.312-0.031-0.479c0,0,1.365,0.334,3.096,0.413 c1.059,0.049,2.051-0.062,3.059-0.182c1.934-0.231,3.616-1.422,3.828-2.51C15.224,7.821,15.195,5.352,15.195,5.352z M12.609,9.664 h-1.606V5.73c0-0.83-0.349-1.25-1.047-1.25c-0.772,0-1.158,0.5-1.158,1.486V8.12H7.202V5.966c0-0.987-0.387-1.486-1.158-1.486 c-0.698,0-1.046,0.421-1.046,1.25v3.933H3.391V5.611c0-0.829,0.211-1.487,0.634-1.974c0.437-0.487,1.009-0.736,1.719-0.736 c0.822,0,1.444,0.315,1.855,0.947L8,4.519l0.4-0.67c0.412-0.632,1.033-0.947,1.855-0.947c0.71,0,1.282,0.25,1.72,0.736 c0.423,0.487,0.635,1.145,0.635,1.974V9.664z"/>
</symbol>
<symbol id="linkedin" fill-rule="evenodd" clip-rule="evenodd" stroke-linejoin="round" stroke-miterlimit="1.414" viewBox="0 0 16 16"><path d="M13.632 13.635h-2.37V9.922c0-.886-.018-2.025-1.234-2.025-1.235 0-1.424.964-1.424 1.96v3.778h-2.37V6H8.51v1.04h.03c.318-.6 1.092-1.233 2.247-1.233 2.4 0 2.845 1.58 2.845 3.637v4.188zM3.558 4.955c-.762 0-1.376-.617-1.376-1.377 0-.758.614-1.375 1.376-1.375.76 0 1.376.617 1.376 1.375 0 .76-.617 1.377-1.376 1.377zm1.188 8.68H2.37V6h2.376v7.635zM14.816 0H1.18C.528 0 0 .516 0 1.153v13.694C0 15.484.528 16 1.18 16h13.635c.652 0 1.185-.516 1.185-1.153V1.153C16 .516 15.467 0 14.815 0z"/>
</symbol>
<symbol id="mail_list" fill-rule="evenodd" clip-rule="evenodd" stroke-linejoin="round" stroke-miterlimit="1.414" viewBox="0 0 16 16"><path d="M 6.730469 3 L 3 3 L 3 8.542969 L 0.0078125 6.328125 C 0.0546875 5.761719 0.347656 5.238281 0.808594 4.898438 L 1.5 4.382812 L 1.5 3 C 1.5 2.171875 2.171875 1.5 3 1.5 L 5.394531 1.5 L 6.953125 0.347656 C 7.257812 0.121094 7.621094 0 8 0 C 8.378906 0 8.742188 0.121094 9.046875 0.34375 L 10.605469 1.5 L 13 1.5 C 13.828125 1.5 14.5 2.171875 14.5 3 L 14.5 4.382812 L 15.191406 4.898438 C 15.652344 5.238281 15.945312 5.761719 15.992188 6.328125 L 13 8.542969 L 13 3 Z M 0 14 L 0 7.566406 L 6.800781 12.601562 C 7.148438 12.859375 7.570312 13 8 13 C 8.429688 13 8.851562 12.863281 9.199219 12.601562 L 16 7.566406 L 16 14 C 16 15.101562 15.101562 16 14 16 L 2 16 C 0.898438 16 0 15.101562 0 14 Z M 5.5 5 L 10.5 5 C 10.773438 5 11 5.226562 11 5.5 C 11 5.773438 10.773438 6 10.5 6 L 5.5 6 C 5.226562 6 5 5.773438 5 5.5 C 5 5.226562 5.226562 5 5.5 5 Z M 5.5 7 L 10.5 7 C 10.773438 7 11 7.226562 11 7.5 C 11 7.773438 10.773438 8 10.5 8 L 5.5 8 C 5.226562 8 5 7.773438 5 7.5 C 5 7.226562 5.226562 7 5.5 7 Z M 5.5 7 "/>
</symbol>
<symbol id="rss" fill-rule="evenodd" clip-rule="evenodd" stroke-linejoin="round" stroke-miterlimit="1.414" viewBox="0 0 16 16"><path d="M12.8 16C12.8 8.978 7.022 3.2 0 3.2V0c8.777 0 16 7.223 16 16h-3.2zM2.194 11.61c1.21 0 2.195.985 2.195 2.196 0 1.21-.99 2.194-2.2 2.194C.98 16 0 15.017 0 13.806c0-1.21.983-2.195 2.194-2.195zM10.606 16h-3.11c0-4.113-3.383-7.497-7.496-7.497v-3.11c5.818 0 10.606 4.79 10.606 10.607z"/>
</symbol>
</svg>
